<svg width="87" height="16" viewBox="0 0 87 16" fill="none" xmlns="http://www.w3.org/2000/svg">
<path d="M11.12 7.78H14.08V13.46C13.32 14.0333 12.44 14.4733 11.44 14.78C10.44 15.0867 9.43333 15.24 8.42 15.24C6.96667 15.24 5.66 14.9333 4.5 14.32C3.34 13.6933 2.42667 12.8333 1.76 11.74C1.10667 10.6333 0.78 9.38667 0.78 8C0.78 6.61333 1.10667 5.37333 1.76 4.28C2.42667 3.17333 3.34667 2.31333 4.52 1.7C5.69333 1.07333 7.01333 0.76 8.48 0.76C9.70667 0.76 10.82 0.966666 11.82 1.38C12.82 1.79333 13.66 2.39333 14.34 3.18L12.26 5.1C11.26 4.04667 10.0533 3.52 8.64 3.52C7.74667 3.52 6.95333 3.70667 6.26 4.08C5.56667 4.45333 5.02667 4.98 4.64 5.66C4.25333 6.34 4.06 7.12 4.06 8C4.06 8.86667 4.25333 9.64 4.64 10.32C5.02667 11 5.56 11.5333 6.24 11.92C6.93333 12.2933 7.72 12.48 8.6 12.48C9.53333 12.48 10.3733 12.28 11.12 11.88V7.78ZM21.9897 15.16C20.8564 15.16 19.8364 14.9267 18.9297 14.46C18.0364 13.98 17.3364 13.32 16.8297 12.48C16.323 11.64 16.0697 10.6867 16.0697 9.62C16.0697 8.55333 16.323 7.6 16.8297 6.76C17.3364 5.92 18.0364 5.26667 18.9297 4.8C19.8364 4.32 20.8564 4.08 21.9897 4.08C23.123 4.08 24.1364 4.32 25.0297 4.8C25.923 5.26667 26.623 5.92 27.1297 6.76C27.6364 7.6 27.8897 8.55333 27.8897 9.62C27.8897 10.6867 27.6364 11.64 27.1297 12.48C26.623 13.32 25.923 13.98 25.0297 14.46C24.1364 14.9267 23.123 15.16 21.9897 15.16ZM21.9897 12.6C22.7897 12.6 23.443 12.3333 23.9497 11.8C24.4697 11.2533 24.7297 10.5267 24.7297 9.62C24.7297 8.71333 24.4697 7.99333 23.9497 7.46C23.443 6.91333 22.7897 6.64 21.9897 6.64C21.1897 6.64 20.5297 6.91333 20.0097 7.46C19.4897 7.99333 19.2297 8.71333 19.2297 9.62C19.2297 10.5267 19.4897 11.2533 20.0097 11.8C20.5297 12.3333 21.1897 12.6 21.9897 12.6ZM33.4152 2.74H28.6152V0.999999H40.1952V2.74H35.3952V15H33.4152V2.74ZM43.6795 6.18C44.0129 5.56667 44.5062 5.1 45.1595 4.78C45.8129 4.46 46.6062 4.3 47.5395 4.3V6.16C47.4329 6.14667 47.2862 6.14 47.0995 6.14C46.0595 6.14 45.2395 6.45333 44.6395 7.08C44.0529 7.69333 43.7595 8.57333 43.7595 9.72V15H41.8395V4.4H43.6795V6.18ZM53.7464 4.3C55.2131 4.3 56.3331 4.66 57.1064 5.38C57.8931 6.1 58.2864 7.17333 58.2864 8.6V15H56.4664V13.6C56.1464 14.0933 55.6864 14.4733 55.0864 14.74C54.4997 14.9933 53.7997 15.12 52.9864 15.12C51.7997 15.12 50.8464 14.8333 50.1264 14.26C49.4197 13.6867 49.0664 12.9333 49.0664 12C49.0664 11.0667 49.4064 10.32 50.0864 9.76C50.7664 9.18667 51.8464 8.9 53.3264 8.9H56.3664V8.52C56.3664 7.69333 56.1264 7.06 55.6464 6.62C55.1664 6.18 54.4597 5.96 53.5264 5.96C52.8997 5.96 52.2864 6.06667 51.6864 6.28C51.0864 6.48 50.5797 6.75333 50.1664 7.1L49.3664 5.66C49.9131 5.22 50.5664 4.88667 51.3264 4.66C52.0864 4.42 52.8931 4.3 53.7464 4.3ZM53.3064 13.64C54.0397 13.64 54.6731 13.48 55.2064 13.16C55.7397 12.8267 56.1264 12.36 56.3664 11.76V10.28H53.4064C51.7797 10.28 50.9664 10.8267 50.9664 11.92C50.9664 12.4533 51.1731 12.8733 51.5864 13.18C51.9997 13.4867 52.5731 13.64 53.3064 13.64ZM71.0242 4.4L66.3842 15H64.4242L59.7842 4.4H61.7842L65.4242 12.9L69.1442 4.4H71.0242ZM82.1031 9.76C82.1031 9.90667 82.0898 10.1 82.0631 10.34H73.4631C73.5831 11.2733 73.9898 12.0267 74.6831 12.6C75.3898 13.16 76.2631 13.44 77.3031 13.44C78.5698 13.44 79.5898 13.0133 80.3631 12.16L81.4231 13.4C80.9431 13.96 80.3431 14.3867 79.6231 14.68C78.9165 14.9733 78.1231 15.12 77.2431 15.12C76.1231 15.12 75.1298 14.8933 74.2631 14.44C73.3965 13.9733 72.7231 13.3267 72.2431 12.5C71.7765 11.6733 71.5431 10.74 71.5431 9.7C71.5431 8.67333 71.7698 7.74667 72.2231 6.92C72.6898 6.09333 73.3231 5.45333 74.1231 5C74.9365 4.53333 75.8498 4.3 76.8631 4.3C77.8765 4.3 78.7765 4.53333 79.5631 5C80.3631 5.45333 80.9831 6.09333 81.4231 6.92C81.8765 7.74667 82.1031 8.69333 82.1031 9.76ZM76.8631 5.92C75.9431 5.92 75.1698 6.2 74.5431 6.76C73.9298 7.32 73.5698 8.05333 73.4631 8.96H80.2631C80.1565 8.06667 79.7898 7.34 79.1631 6.78C78.5498 6.20667 77.7831 5.92 76.8631 5.92ZM84.7692 0.159999H86.6892V15H84.7692V0.159999Z" fill="#9E9E9E"/>
</svg>
