<svg width="53" height="10" viewBox="0 0 53 10" fill="none" xmlns="http://www.w3.org/2000/svg">
<path d="M6.672 4.668H8.448V8.076C7.992 8.42 7.464 8.684 6.864 8.868C6.264 9.052 5.66 9.144 5.052 9.144C4.18 9.144 3.396 8.96 2.7 8.592C2.004 8.216 1.456 7.7 1.056 7.044C0.664 6.38 0.468 5.632 0.468 4.8C0.468 3.968 0.664 3.224 1.056 2.568C1.456 1.904 2.008 1.388 2.712 1.02C3.416 0.644 4.208 0.456 5.088 0.456C5.824 0.456 6.492 0.58 7.092 0.827999C7.692 1.076 8.196 1.436 8.604 1.908L7.356 3.06C6.756 2.428 6.032 2.112 5.184 2.112C4.648 2.112 4.172 2.224 3.756 2.448C3.34 2.672 3.016 2.988 2.784 3.396C2.552 3.804 2.436 4.272 2.436 4.8C2.436 5.32 2.552 5.784 2.784 6.192C3.016 6.6 3.336 6.92 3.744 7.152C4.16 7.376 4.632 7.488 5.16 7.488C5.72 7.488 6.224 7.368 6.672 7.128V4.668ZM13.1938 9.096C12.5138 9.096 11.9018 8.956 11.3578 8.676C10.8218 8.388 10.4018 7.992 10.0978 7.488C9.79381 6.984 9.64181 6.412 9.64181 5.772C9.64181 5.132 9.79381 4.56 10.0978 4.056C10.4018 3.552 10.8218 3.16 11.3578 2.88C11.9018 2.592 12.5138 2.448 13.1938 2.448C13.8738 2.448 14.4818 2.592 15.0178 2.88C15.5538 3.16 15.9738 3.552 16.2778 4.056C16.5818 4.56 16.7338 5.132 16.7338 5.772C16.7338 6.412 16.5818 6.984 16.2778 7.488C15.9738 7.992 15.5538 8.388 15.0178 8.676C14.4818 8.956 13.8738 9.096 13.1938 9.096ZM13.1938 7.56C13.6738 7.56 14.0658 7.4 14.3698 7.08C14.6818 6.752 14.8378 6.316 14.8378 5.772C14.8378 5.228 14.6818 4.796 14.3698 4.476C14.0658 4.148 13.6738 3.984 13.1938 3.984C12.7138 3.984 12.3178 4.148 12.0058 4.476C11.6938 4.796 11.5378 5.228 11.5378 5.772C11.5378 6.316 11.6938 6.752 12.0058 7.08C12.3178 7.4 12.7138 7.56 13.1938 7.56ZM20.0491 1.644H17.1691V0.599999H24.1171V1.644H21.2371V9H20.0491V1.644ZM26.2077 3.708C26.4077 3.34 26.7037 3.06 27.0957 2.868C27.4877 2.676 27.9637 2.58 28.5237 2.58V3.696C28.4597 3.688 28.3717 3.684 28.2597 3.684C27.6357 3.684 27.1437 3.872 26.7837 4.248C26.4317 4.616 26.2557 5.144 26.2557 5.832V9H25.1037V2.64H26.2077V3.708ZM32.2478 2.58C33.1278 2.58 33.7998 2.796 34.2638 3.228C34.7358 3.66 34.9718 4.304 34.9718 5.16V9H33.8798V8.16C33.6878 8.456 33.4118 8.684 33.0518 8.844C32.6998 8.996 32.2798 9.072 31.7918 9.072C31.0798 9.072 30.5078 8.9 30.0758 8.556C29.6518 8.212 29.4398 7.76 29.4398 7.2C29.4398 6.64 29.6438 6.192 30.0518 5.856C30.4598 5.512 31.1078 5.34 31.9958 5.34H33.8198V5.112C33.8198 4.616 33.6758 4.236 33.3878 3.972C33.0998 3.708 32.6758 3.576 32.1158 3.576C31.7398 3.576 31.3718 3.64 31.0118 3.768C30.6518 3.888 30.3478 4.052 30.0998 4.26L29.6198 3.396C29.9478 3.132 30.3398 2.932 30.7958 2.796C31.2518 2.652 31.7358 2.58 32.2478 2.58ZM31.9838 8.184C32.4238 8.184 32.8038 8.088 33.1238 7.896C33.4438 7.696 33.6758 7.416 33.8198 7.056V6.168H32.0438C31.0678 6.168 30.5798 6.496 30.5798 7.152C30.5798 7.472 30.7038 7.724 30.9518 7.908C31.1998 8.092 31.5438 8.184 31.9838 8.184ZM42.6145 2.64L39.8305 9H38.6545L35.8705 2.64H37.0705L39.2545 7.74L41.4865 2.64H42.6145ZM49.2619 5.856C49.2619 5.944 49.2539 6.06 49.2379 6.204H44.0779C44.1499 6.764 44.3939 7.216 44.8099 7.56C45.2339 7.896 45.7579 8.064 46.3819 8.064C47.1419 8.064 47.7539 7.808 48.2179 7.296L48.8539 8.04C48.5659 8.376 48.2059 8.632 47.7739 8.808C47.3499 8.984 46.8739 9.072 46.3459 9.072C45.6739 9.072 45.0779 8.936 44.5579 8.664C44.0379 8.384 43.6339 7.996 43.3459 7.5C43.0659 7.004 42.9259 6.444 42.9259 5.82C42.9259 5.204 43.0619 4.648 43.3339 4.152C43.6139 3.656 43.9939 3.272 44.4739 3C44.9619 2.72 45.5099 2.58 46.1179 2.58C46.7259 2.58 47.2659 2.72 47.7379 3C48.2179 3.272 48.5899 3.656 48.8539 4.152C49.1259 4.648 49.2619 5.216 49.2619 5.856ZM46.1179 3.552C45.5659 3.552 45.1019 3.72 44.7259 4.056C44.3579 4.392 44.1419 4.832 44.0779 5.376H48.1579C48.0939 4.84 47.8739 4.404 47.4979 4.068C47.1299 3.724 46.6699 3.552 46.1179 3.552ZM50.8615 0.0959995H52.0135V9H50.8615V0.0959995Z" fill="white"/>
</svg>
